<?xml version="1.0" encoding="UTF-8" standalone="no"?>
<svg
   aria-hidden="true"
   role="img"
   class="iconify iconify--logos"
   width="31.88"
   height="32"
   preserveAspectRatio="xMidYMid meet"
   viewBox="0 0 256 257"
   version="1.1"
   id="svg6"
   sodipodi:docname="favicon.svg"
   inkscape:version="1.4.2 (ebf0e940d0, 2025-05-08)"
   xmlns:inkscape="http://www.inkscape.org/namespaces/inkscape"
   xmlns:sodipodi="http://sodipodi.sourceforge.net/DTD/sodipodi-0.dtd"
   xmlns="http://www.w3.org/2000/svg"
   xmlns:svg="http://www.w3.org/2000/svg">
  <sodipodi:namedview
     id="namedview6"
     pagecolor="#ffffff"
     bordercolor="#000000"
     borderopacity="0.25"
     inkscape:showpageshadow="2"
     inkscape:pageopacity="0.0"
     inkscape:pagecheckerboard="0"
     inkscape:deskcolor="#d1d1d1"
     inkscape:zoom="26.052465"
     inkscape:cx="5.8151887"
     inkscape:cy="15.910203"
     inkscape:window-width="2560"
     inkscape:window-height="1410"
     inkscape:window-x="0"
     inkscape:window-y="0"
     inkscape:window-maximized="0"
     inkscape:current-layer="svg6" />
  <defs
     id="defs5">
    <linearGradient
       id="IconifyId1813088fe1fbc01fb466"
       x1="-2.1196799"
       x2="147.54816"
       y1="19.589119"
       y2="200.73216"
       gradientUnits="userSpaceOnUse"
       gradientTransform="matrix(0.80612571,0,0,0.80612571,22.503868,25.278318)">
      <stop
         offset="0%"
         stop-color="#41D1FF"
         id="stop1" />
      <stop
         offset="100%"
         stop-color="#BD34FE"
         id="stop2" />
    </linearGradient>
    <linearGradient
       id="IconifyId1813088fe1fbc01fb467"
       x1="188.00649"
       x2="199.00609"
       y1="3.5533929"
       y2="141.10861"
       gradientTransform="matrix(0,0.73921165,-0.79003555,0,244.04222,-12.301484)"
       gradientUnits="userSpaceOnUse">
      <stop
         offset="0%"
         stop-color="#FFEA83"
         id="stop3" />
      <stop
         offset="8.333%"
         stop-color="#FFDD35"
         id="stop4" />
      <stop
         offset="100%"
         stop-color="#FFA800"
         id="stop5" />
    </linearGradient>
  </defs>
  <circle
     fill="url(#IconifyId1813088fe1fbc01fb466)"
     cx="125.68796"
     cy="128.4624"
     r="103.18409"
     id="circle1"
     style="fill:url(#IconifyId1813088fe1fbc01fb466);stroke-width:0.806126" />
  <path
     fill="url(#IconifyId1813088fe1fbc01fb467)"
     d="M 244.00536,172.77406 233.80189,83.953143 a 1.9121992,3.261718 0 0 0 -1.76357,-2.628944 L 177.9397,75.860716 a 1.9121992,3.261718 0 0 0 -1.97657,3.989304 l 3.34577,24.72938 c 0.31304,2.31354 -0.88179,4.40452 -2.24573,3.92844 l -21.09211,-7.34685 c -1.41952,-0.49404 -2.63308,1.77857 -2.21179,4.14301 l 2.72026,15.2746 c 0.42129,2.36744 -0.79577,4.64306 -2.21646,4.14201 l -33.13056,-11.6755 c -2.07251,-0.73061 -3.20241,3.97135 -1.42596,5.93156 l 1.18665,1.31048 84.67977,72.37663 c 1.41776,1.21265 3.03447,-0.87833 2.73372,-3.5332 l -2.88001,-25.45598 c -0.27033,-2.39141 1.03568,-4.42648 2.40722,-3.75179 l 33.76483,16.61402 c 1.37505,0.6757 2.68164,-1.36738 2.40663,-3.76177 z"
     id="path6"
     style="fill:url(#IconifyId1813088fe1fbc01fb467);stroke-width:0.764199" />
</svg>
